<?xml version="1.0" standalone="no"?>
<!DOCTYPE svg PUBLIC "-//W3C//DTD SVG 20010904//EN"
 "http://www.w3.org/TR/2001/REC-SVG-20010904/DTD/svg10.dtd">
<svg version="1.0" xmlns="http://www.w3.org/2000/svg"
 width="120.000000pt" height="120.000000pt" viewBox="0 0 120.000000 120.000000"
 preserveAspectRatio="xMidYMid meet">
<metadata>
Created by potrace 1.14, written by Peter Selinger 2001-2017
</metadata>
<g transform="translate(0.000000,120.000000) scale(0.100000,-0.100000)"
fill="#000000" stroke="none">
<path d="M420 1185 c-9 -10 -30 -15 -71 -15 -56 0 -59 -1 -59 -25 0 -23 -4
-25 -45 -25 -41 0 -45 -2 -45 -24 0 -19 -7 -26 -30 -31 -36 -8 -46 -21 -30
-40 17 -20 5 -33 -39 -45 -46 -12 -103 -76 -80 -90 10 -7 10 -11 -1 -24 -8
-10 -14 -52 -17 -106 -3 -85 -2 -90 17 -90 16 0 20 -7 20 -33 0 -39 24 -77 50
-77 21 0 88 -90 125 -167 15 -32 31 -53 41 -53 10 0 14 5 10 15 -3 8 -1 15 4
15 13 0 13 -53 0 -66 -7 -7 12 -58 60 -157 70 -145 71 -147 103 -146 18 0 25
3 17 6 -26 10 -50 35 -50 54 0 24 29 31 108 28 55 -3 66 0 64 11 -6 29 -36 40
-111 40 -60 1 -72 3 -57 12 12 7 48 8 103 4 68 -6 84 -5 81 6 -5 14 -60 27
-125 27 -46 1 -55 13 -23 33 24 15 27 66 6 74 -8 3 -39 -1 -70 -10 -30 -9 -57
-16 -60 -16 -3 0 -6 21 -6 48 0 70 -17 120 -48 139 -15 10 -33 23 -40 30 -11
11 -10 13 7 13 12 0 24 1 29 2 4 0 45 9 91 20 48 10 89 14 94 9 4 -4 -6 -20
-25 -35 -18 -14 -39 -31 -46 -37 -7 -6 -12 -18 -10 -27 3 -15 17 -17 103 -13
118 4 147 20 185 101 20 44 22 53 10 61 -10 6 3 9 41 9 66 0 97 -19 114 -71 8
-23 19 -35 33 -37 21 -3 22 1 22 60 1 38 7 73 16 88 14 23 14 23 9 2 -4 -12 1
-36 9 -54 11 -21 13 -35 6 -43 -16 -19 -40 -121 -40 -168 0 -23 -9 -58 -19
-77 -11 -19 -30 -55 -43 -80 -13 -25 -30 -54 -38 -66 -20 -28 -131 -111 -172
-129 -32 -14 -28 -14 71 -15 90 0 111 3 155 24 28 14 69 27 91 31 44 6 51 14
60 66 4 21 17 52 31 70 40 55 26 85 -15 31 l-22 -27 16 40 c9 22 23 50 31 62
20 32 18 46 -7 38 -24 -8 -21 -1 35 85 36 54 44 80 27 80 -5 0 -18 -12 -29
-27 -11 -16 -23 -26 -26 -23 -8 8 22 63 53 98 35 38 41 52 30 74 -7 13 -5 15
11 11 11 -3 23 -9 26 -14 3 -5 18 -9 35 -9 l29 0 0 93 0 94 -66 -9 c-36 -5
-68 -8 -69 -6 -2 2 1 25 7 51 9 44 8 49 -21 89 -17 23 -31 52 -31 63 0 12 -9
30 -19 39 -11 10 -21 32 -23 49 -3 28 -8 33 -38 38 -49 8 -79 29 -82 59 -2 21
-7 24 -28 21 -14 -3 -34 -3 -45 -2 -11 1 -95 5 -186 7 -141 4 -168 3 -179 -11z
m409 -486 l26 0 -24 -17 c-22 -15 -137 -50 -170 -51 -11 -1 -10 3 3 12 24 18
17 53 -9 49 -15 -3 -17 -1 -8 8 8 9 16 9 29 2 14 -8 25 -5 47 14 l29 24 25
-20 c14 -11 37 -20 52 -21z m136 -6 c9 -9 21 -27 26 -40 12 -31 12 -150 0
-157 -5 -4 -7 2 -4 13 3 10 0 22 -5 25 -6 3 -8 15 -5 25 3 11 -3 35 -12 55 -9
19 -14 40 -10 47 13 20 -18 29 -39 11 -15 -13 -17 -13 -11 -2 24 44 35 48 60
23z m-501 -58 c3 -8 1 -15 -4 -15 -6 0 -10 7 -10 15 0 8 2 15 4 15 2 0 6 -7
10 -15z m-184 -58 c17 -30 7 -46 -18 -31 -21 13 -30 68 -10 62 7 -3 20 -16 28
-31z m114 7 c22 -9 10 -24 -20 -24 -23 0 -31 10 -17 23 8 9 17 9 37 1z m568
-136 c-18 -19 -22 -20 -22 -6 0 9 8 21 17 27 27 15 29 3 5 -21z"/>
<path d="M760 475 c0 -17 36 -39 50 -30 15 9 12 32 -6 39 -26 10 -44 7 -44 -9z"/>
<path d="M968 3 c12 -2 30 -2 40 0 9 3 -1 5 -23 4 -22 0 -30 -2 -17 -4z"/>
</g>
</svg>
